<svg viewBox="0 22.365 102.833 106.635" width="129" height="129" xmlns="http://www.w3.org/2000/svg">
  <g fill="none" fill-rule="evenodd" style="" transform="matrix(0.79618, 0, 0, 0.82753, -0.150385, 21.877144)">
    <path d="M12.85.928h103.384c6.797 0 12.307 5.51 12.307 12.308V116.62c0 6.798-5.51 12.308-12.307 12.308H12.849c-6.797 0-12.308-5.51-12.308-12.308V13.236C.541 6.438 6.051.928 12.85.928z" fill="#E05C43" fill-rule="nonzero"></path>
    <path d="M52.506 65.515c.522-20.675 14.073-29.71 18.766-25.187 4.692 4.512 2.951 14.24-5.909 20.322-8.858 6.083-12.857 4.865-12.857 4.865m12.857 21.022c-12.039.304-10.771-7.605-10.771-7.605S98.545 63.89 86.56 34.178c-5.386-7.645-11.645-10.047-20.502-9.872-8.86.173-19.77 5.576-26.894 21.563-3.398 7.63-4.552 14.857-5.245 20.334 0 0-7.785 1.563-11.955-1.904-4.168-3.472-6.36 0-6.36 0s-7.178 8.4-.052 11.183c7.124 2.782 18.219 3.344 18.219 3.344h-.005c1.02 7.398 3.534 14.51 12.668 20.45 15.316 9.965 38.044-.56 38.044-.56 13.622-5.693 22.67-14.507 26.527-18.8a3.535 3.535 0 0 0-.092-4.823l-4.436-4.61a3.537 3.537 0 0 0-4.799-.283c-5.925 4.853-21.5 16.337-36.316 16.337" fill="#FEFEFE"></path>
  </g>
  <path xmlns="http://www.w3.org/2000/svg" d="M 98.335 40.938 L 98.335 40.994 C 98.335 41.007 98.326 41.018 98.314 41.019 C 96.809 41.179 95.635 42.56 95.641 44.303 L 95.664 51.284 C 95.665 51.772 95.577 52.243 95.414 52.673 C 94.951 53.9 93.894 54.792 92.661 54.792 L 89.538 54.792 L 89.516 54.762 L 77.313 37.564 L 77.369 54.792 L 74.225 54.792 C 72.56 54.792 71.207 53.268 71.2 51.387 L 71.177 44.303 C 71.171 42.56 69.988 41.179 68.482 41.019 C 68.47 41.018 68.461 41.007 68.461 40.994 L 68.461 40.938 C 68.461 40.925 68.47 40.914 68.481 40.913 C 69.981 40.748 71.149 39.331 71.143 37.593 L 71.119 30.504 C 71.117 30.03 71.202 29.578 71.355 29.168 C 71.811 27.951 72.877 27.098 74.123 27.098 L 77.266 27.098 L 77.278 27.116 L 89.482 44.314 L 89.425 27.098 L 92.582 27.098 C 94.246 27.098 95.601 28.623 95.607 30.504 L 95.63 37.593 C 95.636 39.331 96.813 40.748 98.314 40.913 C 98.326 40.914 98.335 40.925 98.335 40.938" style="fill-rule: nonzero; fill: rgb(255, 255, 255);"></path>
</svg>
