<svg viewBox="0 22.365 102.833 106.635" width="129" height="129" xmlns="http://www.w3.org/2000/svg">
  <g fill="none" fill-rule="evenodd" style="" transform="matrix(0.79618, 0, 0, 0.82753, -0.150385, 21.877144)">
    <path d="M12.85.928h103.384c6.797 0 12.307 5.51 12.307 12.308V116.62c0 6.798-5.51 12.308-12.307 12.308H12.849c-6.797 0-12.308-5.51-12.308-12.308V13.236C.541 6.438 6.051.928 12.85.928z" fill="#E05C43" fill-rule="nonzero"></path>
    <path d="M52.506 65.515c.522-20.675 14.073-29.71 18.766-25.187 4.692 4.512 2.951 14.24-5.909 20.322-8.858 6.083-12.857 4.865-12.857 4.865m12.857 21.022c-12.039.304-10.771-7.605-10.771-7.605S98.545 63.89 86.56 34.178c-5.386-7.645-11.645-10.047-20.502-9.872-8.86.173-19.77 5.576-26.894 21.563-3.398 7.63-4.552 14.857-5.245 20.334 0 0-7.785 1.563-11.955-1.904-4.168-3.472-6.36 0-6.36 0s-7.178 8.4-.052 11.183c7.124 2.782 18.219 3.344 18.219 3.344h-.005c1.02 7.398 3.534 14.51 12.668 20.45 15.316 9.965 38.044-.56 38.044-.56 13.622-5.693 22.67-14.507 26.527-18.8a3.535 3.535 0 0 0-.092-4.823l-4.436-4.61a3.537 3.537 0 0 0-4.799-.283c-5.925 4.853-21.5 16.337-36.316 16.337" fill="#FEFEFE"></path>
  </g>
  <path d="M 97.377 26.731 C 98.769 28.22 99.492 30.084 99.545 32.324 L 99.545 48.143 C 99.492 50.383 98.769 52.247 97.377 53.736 C 95.984 55.223 94.239 55.995 92.144 56.052 L 77.34 56.052 C 75.244 55.996 73.499 55.223 72.107 53.736 C 70.714 52.247 69.99 50.383 69.938 48.143 L 69.938 32.324 C 69.99 30.084 70.714 28.22 72.107 26.731 C 73.499 25.244 75.244 24.471 77.34 24.414 L 92.144 24.414 C 94.239 24.471 95.984 25.244 97.377 26.731 Z M 95.335 39.461 C 94.869 38.966 94.627 38.347 94.608 37.598 L 94.608 32.324 C 94.594 31.578 94.354 30.956 93.888 30.458 C 93.424 29.962 92.841 29.706 92.144 29.69 L 89.679 29.69 L 89.679 42.868 L 79.804 29.69 L 77.34 29.69 C 76.641 29.706 76.059 29.962 75.595 30.458 C 75.129 30.956 74.889 31.578 74.875 32.324 L 74.875 37.598 C 74.855 38.347 74.615 38.966 74.147 39.461 C 73.683 39.954 73.102 40.213 72.404 40.232 C 73.102 40.254 73.683 40.511 74.147 41.005 C 74.615 41.501 74.855 42.12 74.875 42.868 L 74.875 48.143 C 74.889 48.89 75.129 49.511 75.595 50.007 C 76.059 50.506 76.642 50.761 77.34 50.777 L 79.804 50.777 L 79.804 37.598 L 89.679 50.777 L 92.144 50.777 C 92.841 50.761 93.424 50.506 93.888 50.008 C 94.354 49.511 94.594 48.89 94.608 48.143 L 94.608 42.868 C 94.627 42.12 94.869 41.501 95.335 41.005 C 95.8 40.512 96.381 40.254 97.079 40.232 C 96.381 40.213 95.799 39.954 95.336 39.461 L 95.335 39.461 Z" style="fill: rgb(255, 255, 255);"></path>
</svg>
